<svg width="100" height="103" viewBox="0 0 100 103" fill="none" xmlns="http://www.w3.org/2000/svg">
<path d="M29 6H92C93.1046 6 94 6.89543 94 8V95C94 96.1046 93.1046 97 92 97H52.8581L46.864 103H92C96.4183 103 100 99.4183 100 95V8C100 3.58172 96.4183 0 92 0H29C24.5817 0 21 3.58172 21 8V32H27V8C27 6.89543 27.8954 6 29 6Z" fill="#4F45A8"/>
<path d="M6.06366 38.9175C9.48743 36.9483 13.8533 36.4869 18.0268 37.5745C20.0594 38.1018 21.7954 39.4572 22.8377 41.3235L26.4379 47.7749C27.7211 50.0749 28.0917 52.7948 27.4726 55.3685C26.8535 57.9422 25.2925 60.1715 23.1144 61.5924L19.9472 63.6605C18.6362 64.5133 18.1551 65.8192 18.4558 66.8533C19.5302 70.5528 21.9076 74.656 24.5215 77.4657C25.2993 78.3061 26.7266 78.5038 28.1217 77.6675L29.8737 76.617C31.0233 75.9284 32.2948 75.482 33.614 75.3037C34.9333 75.1254 36.2738 75.2189 37.5576 75.5786C38.8413 75.9383 40.0425 76.557 41.0911 77.3988C42.1397 78.2405 43.0147 79.2884 43.665 80.4813L46.8923 86.3931C47.9467 88.3293 48.1191 90.6405 47.3734 92.7209C45.886 96.853 43.0195 100.186 39.4955 101.854C35.9154 103.548 31.7259 103.477 27.9333 100.878C21.9277 96.7665 14.6912 89.8454 8.13637 78.302C1.4973 66.602 -0.174493 56.6446 0.0139348 49.2209C0.134208 44.4709 2.57976 40.9197 6.06366 38.9175ZM42.9153 37.3521C42.4506 37.0866 41.9024 37.0216 41.3911 37.1715C40.8799 37.3214 40.4475 37.6738 40.1891 38.1513C39.9307 38.6288 39.8675 39.1921 40.0134 39.7175C40.1592 40.2429 40.5022 40.6872 40.9669 40.9527L42.5064 41.8343C47.3157 44.5797 51.4067 48.4808 54.4297 53.2043C57.4527 57.9278 59.3179 63.3331 59.8658 68.9585L59.994 70.2562C60.0092 70.5339 60.0789 70.8056 60.199 71.0549C60.3191 71.3043 60.4872 71.526 60.6929 71.7067C60.8987 71.8875 61.138 72.0236 61.3963 72.1067C61.6547 72.1898 61.9267 72.2184 62.1961 72.1905C62.4655 72.1627 62.7266 72.079 62.9636 71.9447C63.2007 71.8103 63.4088 71.628 63.5754 71.4088C63.742 71.1895 63.8637 70.9378 63.933 70.6689C64.0024 70.4 64.0181 70.1195 63.9791 69.8442L63.8548 68.5506C63.2431 62.2622 61.1586 56.2196 57.7795 50.9393C54.4003 45.6591 49.8271 41.2982 44.4508 38.2296L42.9153 37.3521ZM38.2166 48.3929C38.4905 47.9248 38.9341 47.5876 39.4498 47.4555C39.9655 47.3234 40.5112 47.4071 40.9669 47.6884L41.464 47.9933C44.7001 49.987 47.4763 52.6791 49.6007 55.8835C51.7251 59.0879 53.1469 62.7281 53.7679 66.5525L53.9443 67.6525C53.9963 67.923 53.9949 68.2015 53.9402 68.4714C53.8855 68.7414 53.7786 68.9973 53.6259 69.224C53.4732 69.4507 53.2777 69.6436 53.0511 69.7912C52.8245 69.9389 52.5713 70.0383 52.3066 70.0835C52.0419 70.1287 51.7711 70.1189 51.5102 70.0546C51.2493 69.9903 51.0036 69.8728 50.7876 69.7091C50.5717 69.5454 50.39 69.3388 50.2532 69.1016C50.1164 68.8644 50.0274 68.6014 49.9913 68.3281L49.8109 67.2323C49.2869 63.9961 48.0852 60.9155 46.2889 58.2033C44.4927 55.4911 42.1447 53.2121 39.4073 51.5238L38.9102 51.219C38.6843 51.08 38.4873 50.8966 38.3303 50.6793C38.1734 50.4621 38.0597 50.2152 37.9957 49.9527C37.9316 49.6903 37.9185 49.4174 37.9571 49.1498C37.9957 48.8822 38.0853 48.625 38.2206 48.3929H38.2166Z" fill="#4F45A8"/>
<path d="M34 19.5C34 18.1193 35.1193 17 36.5 17H84.5C85.8807 17 87 18.1193 87 19.5C87 20.8807 85.8807 22 84.5 22H36.5C35.1193 22 34 20.8807 34 19.5Z" fill="#4F45A8"/>
<path d="M49 33.5C49 32.1193 50.1193 31 51.5 31H80.5C81.8807 31 83 32.1193 83 33.5C83 34.8807 81.8807 36 80.5 36H51.5C50.1193 36 49 34.8807 49 33.5Z" fill="#4F45A8"/>
<path d="M59 44.5C59 43.1193 60.1193 42 61.5 42H80.5C81.8807 42 83 43.1193 83 44.5C83 45.8807 81.8807 47 80.5 47H61.5C60.1193 47 59 45.8807 59 44.5Z" fill="#4F45A8"/>
<path d="M29 11.5C29 10.1193 30.1193 9 31.5 9H36.5C37.8807 9 39 10.1193 39 11.5C39 12.8807 37.8807 14 36.5 14H31.5C30.1193 14 29 12.8807 29 11.5Z" fill="#4F45A8"/>
<path d="M56 81.5C56 80.1193 57.1193 79 58.5 79H80.5C81.8807 79 83 80.1193 83 81.5C83 82.8807 81.8807 84 80.5 84H58.5C57.1193 84 56 82.8807 56 81.5Z" fill="#4F45A8"/>
</svg>
