<svg width="79" height="77" viewBox="0 0 79 77" fill="none" xmlns="http://www.w3.org/2000/svg">
<path d="M0 72.875C0 73.969 0.445885 75.0182 1.23957 75.7918C2.03325 76.5654 3.10971 77 4.23214 77H74.7679C75.8903 77 76.9668 76.5654 77.7604 75.7918C78.5541 75.0182 79 73.969 79 72.875V24.75H0V72.875ZM54.6952 30.9375H59.25V65.3125H53.6071V38.5498L47.3665 43.0323L44.016 38.6048L54.6952 30.9375ZM33.5045 52.1297C31.9985 50.6275 29.4927 49.952 28.1949 49.952H25.3735V44.452H28.1949C29.0501 44.452 31.265 44.0052 32.6527 42.6216C33.0282 42.2617 33.3245 41.831 33.5237 41.3559C33.7229 40.8807 33.8207 40.371 33.8113 39.8578C33.8113 35.8652 28.7627 35.75 28.1878 35.75C25.1301 35.75 23.991 37.5736 23.9433 37.6509L22.5097 40.0194L17.6498 37.223L19.0852 34.8563C20.4324 32.6219 23.5325 30.25 28.1878 30.25C31.0869 30.25 33.7884 31.0698 35.7933 32.5566C38.1545 34.3097 39.4542 36.9016 39.4542 39.8578C39.4621 41.0834 39.2209 42.2984 38.7445 43.4327C38.2681 44.567 37.566 45.598 36.6786 46.4664C36.4758 46.6692 36.2624 46.8583 36.0455 47.0422C36.5753 47.4152 37.0719 47.8308 37.5303 48.2848C39.3924 50.1411 40.3764 52.7106 40.3764 55.7184C40.3764 58.8225 39.0345 61.5622 36.5992 63.4391C34.4532 65.0908 31.5295 66 28.3642 66C23.4496 66 19.8152 62.8787 18.1965 60.2078L16.7628 57.8394L21.6227 55.043L23.0617 57.4062C23.2521 57.7225 25.0278 60.5 28.3695 60.5C31.3073 60.5 34.7388 59.247 34.7388 55.7184C34.7388 54.6442 34.5237 53.1489 33.5045 52.1297ZM74.7679 5.5H64.907V0H56.4427V5.5H22.5573V0H14.093V5.5H4.23214C3.67849 5.49546 3.12938 5.59775 2.61646 5.80097C2.10354 6.00419 1.63694 6.30432 1.24356 6.68408C0.850167 7.06383 0.53776 7.51571 0.324333 8.01366C0.110906 8.51161 0.000678359 9.04581 0 9.58547V19.25H79V9.58547C78.9993 9.04581 78.8891 8.51161 78.6757 8.01366C78.4622 7.51571 78.1498 7.06383 77.7564 6.68408C77.3631 6.30432 76.8965 6.00419 76.3835 5.80097C75.8706 5.59775 75.3215 5.49546 74.7679 5.5Z" fill="#4F45A8"/>
</svg>
