<svg width="57" height="109" viewBox="0 0 57 109" fill="none" xmlns="http://www.w3.org/2000/svg">
<path fill-rule="evenodd" clip-rule="evenodd" d="M12.6183 3.78026C12.6183 1.53612 12.8761 1.2559 15.6641 0.470844C16.5615 0.218323 17.3545 0.0683022 17.4263 0.137772C17.4979 0.207242 17.7235 0.695663 17.9276 1.22308C18.7624 3.38198 20.6636 5.3787 22.9588 6.50663C26.2176 8.10828 30.7824 8.10828 34.0412 6.50663C36.4062 5.34418 38.4598 3.13393 39.1481 1.00977C39.3189 0.482352 39.4675 0.0327148 39.4782 0.0101264C39.5395 -0.118372 43.1577 1.01318 43.6065 1.30107C44.1985 1.68124 44.2966 2.07739 44.4726 4.79908C44.5777 6.42501 45.2895 8.92465 46.3412 11.3616C46.6055 11.9743 46.5492 12.1833 45.4788 14.5581C42.5746 21.0013 42.0053 22.323 41.4529 23.9022C40.3234 27.1311 39.937 30.3165 40.4585 32.098C40.5744 32.4935 41.5421 34.1231 42.6092 35.7194C49.074 45.3902 53.788 56.0907 55.7839 65.6241C56.2945 68.0632 57 72.7411 57 73.6873C57 74.0943 56.7407 74.1026 43.9466 74.1026H26.1069H13.0534C0.25933 74.1026 0 74.0943 0 73.6873C0 72.7411 0.705537 68.0632 1.21614 65.6241C3.22311 56.0381 7.88036 45.4889 14.4819 35.5757C16.7484 32.1726 16.899 31.7112 16.6805 28.8387C16.4667 26.0264 15.3515 22.8024 12.4963 16.7422C12.3788 16.4929 12.2676 16.2573 12.1623 16.0344C10.9264 13.418 10.516 12.5491 10.5999 11.7287C10.6417 11.3208 10.8056 10.9249 11.0511 10.3321C11.0931 10.2306 11.1376 10.1233 11.1842 10.0091C12.096 7.77712 12.6183 5.50805 12.6183 3.78026ZM24.7492 89.6474C24.7295 89.6566 24.7099 89.666 24.6904 89.6758L24.7492 89.6474ZM15.1523 102.408C15.2136 102.18 15.2974 101.947 15.4072 101.709C15.2943 101.971 15.229 102.139 15.229 102.175C15.229 102.245 15.2011 102.324 15.1523 102.408Z" fill="#4F45A8"/>
</svg>
