<svg width="97" height="57" viewBox="0 0 97 57" fill="none" xmlns="http://www.w3.org/2000/svg">
<path fill-rule="evenodd" clip-rule="evenodd" d="M10.6667 0.391556C10.0985 0.670916 9.75994 1.01089 9.48258 1.58034C9.13568 2.2923 9.094 2.73506 9.094 5.70693V9.03591H7.16455C4.72964 9.03591 3.82327 9.39923 3.23216 10.6127C2.74184 11.6192 2.74184 12.1 3.23216 13.1066C3.51559 13.6883 3.84335 14.0139 4.42878 14.2956C5.20233 14.6675 5.54734 14.6834 12.9391 14.6834C21.5333 14.6834 21.8819 14.7272 22.4913 15.8832C23.1908 17.2098 22.8074 18.7089 21.5255 19.6603C21.0179 20.0371 20.7256 20.0512 11.4959 20.1425C2.45121 20.2322 1.95919 20.2547 1.36959 20.609C0.71009 21.0053 0 22.2276 0 22.9663C0 23.8638 0.735477 24.9926 1.5869 25.4022C2.37751 25.7825 2.6509 25.79 15.7089 25.79C30.4289 25.79 29.8488 25.7437 30.7434 26.9897C31.333 27.8112 31.333 29.4162 30.7434 30.2377C29.8488 31.4837 30.4289 31.4374 15.7089 31.4374C2.6509 31.4374 2.37751 31.445 1.5869 31.8252C0.735477 32.2349 0 33.3636 0 34.2612C0 35.1587 0.735477 36.2875 1.5869 36.6971C2.30779 37.0438 2.74771 37.0849 5.74362 37.0849H9.094V41.5433C9.094 45.6012 9.12772 46.0711 9.46894 46.7714C10.122 48.1121 10.6087 48.2721 14.3623 48.3798L17.6412 48.4739L18.0717 49.7461C18.6347 51.4106 20.0875 53.4994 21.4008 54.533C25.581 57.8227 31.0619 57.8223 35.2472 54.5321C36.5598 53.5003 38.0127 51.4117 38.5769 49.7461L39.0078 48.4739H53.4272H67.8467L68.2775 49.7461C68.8416 51.4111 70.2943 53.4997 71.6073 54.533C75.7875 57.8227 81.2683 57.8223 85.4536 54.5321C86.7666 53.4999 88.2195 51.4111 88.7828 49.7461L89.2131 48.4739L92.1133 48.3798C95.4476 48.2715 95.9913 48.0778 96.6277 46.7714C96.9858 46.0366 97.0024 45.5873 96.9998 36.7901C96.9968 26.7566 96.9407 26.1066 95.9163 24.2364C95.2481 23.0167 93.6725 21.6073 92.1923 20.9055C89.8269 19.7837 89.6698 19.7719 77.1381 19.7689C64.5024 19.7657 64.8711 19.7996 63.9857 18.5663C63.5648 17.9798 63.5631 17.9453 63.5106 8.98885L63.4579 0L37.4601 0.000188248C11.5162 0.000376496 11.4605 0.0011295 10.6667 0.391556ZM69.1523 7.32906V14.1186H76.9201C81.1923 14.1186 84.6878 14.0753 84.6878 14.0224C84.6878 13.8504 82.223 9.95889 81.425 8.87119C78.5058 4.89163 75.1403 2.36346 71.1416 1.14605C70.4122 0.923922 69.6661 0.696706 69.4838 0.640797C69.1723 0.545543 69.1523 0.949523 69.1523 7.32906ZM30.5975 41.5586C31.4876 42.0153 32.5908 43.1205 33.0843 44.0501C33.3399 44.5316 33.4341 45.1142 33.4341 46.2149C33.4341 47.9165 33.1753 48.5772 32.045 49.7606C30.0943 51.8025 27.0709 51.9215 24.921 50.0409C23.5976 48.8835 23.2153 48.0257 23.2153 46.2149C23.2153 45.0273 23.303 44.5448 23.6304 43.9318C24.1576 42.9445 25.5627 41.7099 26.5855 41.335C27.6573 40.9421 29.6076 41.0509 30.5975 41.5586ZM80.8039 41.5586C81.694 42.0153 82.7972 43.1205 83.2908 44.0501C83.5464 44.5316 83.6405 45.1142 83.6405 46.2149C83.6405 47.9165 83.3817 48.5772 82.2514 49.7606C80.3008 51.8025 77.2774 51.9215 75.1274 50.0409C73.804 48.8835 73.4217 48.0257 73.4217 46.2149C73.4217 45.0273 73.5094 44.5448 73.8368 43.9318C74.3641 42.9445 75.7691 41.7099 76.792 41.335C77.8637 40.9421 79.814 41.0509 80.8039 41.5586Z" fill="#4F45A8"/>
</svg>
