<svg width="102" height="72" viewBox="0 0 102 72" fill="none" xmlns="http://www.w3.org/2000/svg">
<path d="M67.8484 36.005C65.1551 36.005 62.6212 34.5586 61.2507 32.2444L51.0035 15.1127L40.7723 32.2444C39.3858 34.5747 36.8519 36.021 34.1587 36.021C33.4415 36.021 32.7244 35.9246 32.0391 35.7157L10.2061 29.4159V58.0222C10.2061 60.3847 11.7998 62.4418 14.0627 63.0043L48.5174 71.6987C50.143 72.1004 51.8482 72.1004 53.4578 71.6987L87.9443 63.0043C90.2073 62.4257 91.801 60.3686 91.801 58.0222V29.4159L69.968 35.6996C69.2827 35.9086 68.5656 36.005 67.8484 36.005ZM101.729 17.9733L93.5221 1.45233C93.0281 0.455929 91.9603 -0.122628 90.8607 0.0220113L51.0035 5.14866L65.6173 29.5926C66.2229 30.6051 67.4341 31.0872 68.5656 30.7658L100.104 21.6857C101.682 21.2197 102.447 19.4518 101.729 17.9733ZM8.48496 1.45233L0.277666 17.9733C-0.455413 19.4518 0.325475 21.2197 1.88725 21.6696L33.4256 30.7498C34.5571 31.0712 35.7682 30.5891 36.3738 29.5766L51.0035 5.14866L11.1304 0.0220113C10.0308 -0.106557 8.97899 0.455929 8.48496 1.45233Z" fill="#4F45A8"/>
</svg>
