<svg width="195" height="209" viewBox="0 0 195 209" fill="none" xmlns="http://www.w3.org/2000/svg">
<rect width="195" height="209" rx="17" fill="#D9D9D9"/>
<path d="M38.88 97.06C40.4 97.06 41.7133 97.3467 42.82 97.92C43.94 98.48 44.7933 99.2867 45.38 100.34C45.98 101.393 46.28 102.633 46.28 104.06C46.28 105.487 45.98 106.727 45.38 107.78C44.7933 108.82 43.94 109.62 42.82 110.18C41.7133 110.727 40.4 111 38.88 111H34.54V97.06H38.88ZM38.88 109.5C40.68 109.5 42.0533 109.027 43 108.08C43.9467 107.12 44.42 105.78 44.42 104.06C44.42 102.327 43.94 100.973 42.98 100C42.0333 99.0267 40.6667 98.54 38.88 98.54H36.36V109.5H38.88ZM58.4006 100.04V111H56.5806V109.38C56.234 109.94 55.7473 110.38 55.1206 110.7C54.5073 111.007 53.8273 111.16 53.0806 111.16C52.2273 111.16 51.4606 110.987 50.7806 110.64C50.1006 110.28 49.5606 109.747 49.1606 109.04C48.774 108.333 48.5806 107.473 48.5806 106.46V100.04H50.3806V106.22C50.3806 107.3 50.654 108.133 51.2006 108.72C51.7473 109.293 52.494 109.58 53.4406 109.58C54.414 109.58 55.1806 109.28 55.7406 108.68C56.3006 108.08 56.5806 107.207 56.5806 106.06V100.04H58.4006ZM63.2936 102.06C63.6536 101.433 64.1869 100.913 64.8936 100.5C65.6136 100.073 66.4469 99.86 67.3936 99.86C68.3669 99.86 69.2469 100.093 70.0336 100.56C70.8336 101.027 71.4603 101.687 71.9136 102.54C72.3669 103.38 72.5936 104.36 72.5936 105.48C72.5936 106.587 72.3669 107.573 71.9136 108.44C71.4603 109.307 70.8336 109.98 70.0336 110.46C69.2469 110.94 68.3669 111.18 67.3936 111.18C66.4603 111.18 65.6336 110.973 64.9136 110.56C64.2069 110.133 63.6669 109.607 63.2936 108.98V116.2H61.4736V100.04H63.2936V102.06ZM70.7336 105.48C70.7336 104.653 70.5669 103.933 70.2336 103.32C69.9003 102.707 69.4469 102.24 68.8736 101.92C68.3136 101.6 67.6936 101.44 67.0136 101.44C66.3469 101.44 65.7269 101.607 65.1536 101.94C64.5936 102.26 64.1403 102.733 63.7936 103.36C63.4603 103.973 63.2936 104.687 63.2936 105.5C63.2936 106.327 63.4603 107.053 63.7936 107.68C64.1403 108.293 64.5936 108.767 65.1536 109.1C65.7269 109.42 66.3469 109.58 67.0136 109.58C67.6936 109.58 68.3136 109.42 68.8736 109.1C69.4469 108.767 69.9003 108.293 70.2336 107.68C70.5669 107.053 70.7336 106.32 70.7336 105.48ZM74.3092 105.48C74.3092 104.36 74.5359 103.38 74.9892 102.54C75.4426 101.687 76.0626 101.027 76.8492 100.56C77.6492 100.093 78.5359 99.86 79.5092 99.86C80.4692 99.86 81.3026 100.067 82.0092 100.48C82.7159 100.893 83.2426 101.413 83.5892 102.04V100.04H85.4292V111H83.5892V108.96C83.2292 109.6 82.6892 110.133 81.9692 110.56C81.2626 110.973 80.4359 111.18 79.4892 111.18C78.5159 111.18 77.6359 110.94 76.8492 110.46C76.0626 109.98 75.4426 109.307 74.9892 108.44C74.5359 107.573 74.3092 106.587 74.3092 105.48ZM83.5892 105.5C83.5892 104.673 83.4226 103.953 83.0892 103.34C82.7559 102.727 82.3026 102.26 81.7292 101.94C81.1692 101.607 80.5492 101.44 79.8692 101.44C79.1892 101.44 78.5692 101.6 78.0092 101.92C77.4492 102.24 77.0026 102.707 76.6692 103.32C76.3359 103.933 76.1692 104.653 76.1692 105.48C76.1692 106.32 76.3359 107.053 76.6692 107.68C77.0026 108.293 77.4492 108.767 78.0092 109.1C78.5692 109.42 79.1892 109.58 79.8692 109.58C80.5492 109.58 81.1692 109.42 81.7292 109.1C82.3026 108.767 82.7559 108.293 83.0892 107.68C83.4226 107.053 83.5892 106.327 83.5892 105.5ZM90.7248 101.54V108C90.7248 108.533 90.8382 108.913 91.0648 109.14C91.2915 109.353 91.6848 109.46 92.2448 109.46H93.5848V111H91.9448C90.9315 111 90.1715 110.767 89.6648 110.3C89.1582 109.833 88.9048 109.067 88.9048 108V101.54H87.4848V100.04H88.9048V97.28H90.7248V100.04H93.5848V101.54H90.7248ZM98.01 101.54V108C98.01 108.533 98.1233 108.913 98.35 109.14C98.5767 109.353 98.97 109.46 99.53 109.46H100.87V111H99.23C98.2167 111 97.4567 110.767 96.95 110.3C96.4433 109.833 96.19 109.067 96.19 108V101.54H94.77V100.04H96.19V97.28H98.01V100.04H100.87V101.54H98.01ZM102.395 105.48C102.395 104.36 102.622 103.38 103.075 102.54C103.528 101.687 104.148 101.027 104.935 100.56C105.735 100.093 106.622 99.86 107.595 99.86C108.555 99.86 109.388 100.067 110.095 100.48C110.802 100.893 111.328 101.413 111.675 102.04V100.04H113.515V111H111.675V108.96C111.315 109.6 110.775 110.133 110.055 110.56C109.348 110.973 108.522 111.18 107.575 111.18C106.602 111.18 105.722 110.94 104.935 110.46C104.148 109.98 103.528 109.307 103.075 108.44C102.622 107.573 102.395 106.587 102.395 105.48ZM111.675 105.5C111.675 104.673 111.508 103.953 111.175 103.34C110.842 102.727 110.388 102.26 109.815 101.94C109.255 101.607 108.635 101.44 107.955 101.44C107.275 101.44 106.655 101.6 106.095 101.92C105.535 102.24 105.088 102.707 104.755 103.32C104.422 103.933 104.255 104.653 104.255 105.48C104.255 106.32 104.422 107.053 104.755 107.68C105.088 108.293 105.535 108.767 106.095 109.1C106.655 109.42 107.275 109.58 107.955 109.58C108.635 109.58 109.255 109.42 109.815 109.1C110.388 108.767 110.842 108.293 111.175 107.68C111.508 107.053 111.675 106.327 111.675 105.5ZM120.471 111.18C119.631 111.18 118.877 111.04 118.211 110.76C117.544 110.467 117.017 110.067 116.631 109.56C116.244 109.04 116.031 108.447 115.991 107.78H117.871C117.924 108.327 118.177 108.773 118.631 109.12C119.097 109.467 119.704 109.64 120.451 109.64C121.144 109.64 121.691 109.487 122.091 109.18C122.491 108.873 122.691 108.487 122.691 108.02C122.691 107.54 122.477 107.187 122.051 106.96C121.624 106.72 120.964 106.487 120.071 106.26C119.257 106.047 118.591 105.833 118.071 105.62C117.564 105.393 117.124 105.067 116.751 104.64C116.391 104.2 116.211 103.627 116.211 102.92C116.211 102.36 116.377 101.847 116.711 101.38C117.044 100.913 117.517 100.547 118.131 100.28C118.744 100 119.444 99.86 120.231 99.86C121.444 99.86 122.424 100.167 123.171 100.78C123.917 101.393 124.317 102.233 124.371 103.3H122.551C122.511 102.727 122.277 102.267 121.851 101.92C121.437 101.573 120.877 101.4 120.171 101.4C119.517 101.4 118.997 101.54 118.611 101.82C118.224 102.1 118.031 102.467 118.031 102.92C118.031 103.28 118.144 103.58 118.371 103.82C118.611 104.047 118.904 104.233 119.251 104.38C119.611 104.513 120.104 104.667 120.731 104.84C121.517 105.053 122.157 105.267 122.651 105.48C123.144 105.68 123.564 105.987 123.911 106.4C124.271 106.813 124.457 107.353 124.471 108.02C124.471 108.62 124.304 109.16 123.971 109.64C123.637 110.12 123.164 110.5 122.551 110.78C121.951 111.047 121.257 111.18 120.471 111.18Z" fill="black"/>
</svg>
