<svg width="195" height="209" viewBox="0 0 195 209" fill="none" xmlns="http://www.w3.org/2000/svg">
<rect width="195" height="209" rx="17" fill="#CFCBFF"/>
<path d="M38.88 92.06C40.4 92.06 41.7133 92.3467 42.82 92.92C43.94 93.48 44.7933 94.2867 45.38 95.34C45.98 96.3933 46.28 97.6333 46.28 99.06C46.28 100.487 45.98 101.727 45.38 102.78C44.7933 103.82 43.94 104.62 42.82 105.18C41.7133 105.727 40.4 106 38.88 106H34.54V92.06H38.88ZM38.88 104.5C40.68 104.5 42.0533 104.027 43 103.08C43.9467 102.12 44.42 100.78 44.42 99.06C44.42 97.3267 43.94 95.9733 42.98 95C42.0333 94.0267 40.6667 93.54 38.88 93.54H36.36V104.5H38.88ZM58.4006 95.04V106H56.5806V104.38C56.234 104.94 55.7473 105.38 55.1206 105.7C54.5073 106.007 53.8273 106.16 53.0806 106.16C52.2273 106.16 51.4606 105.987 50.7806 105.64C50.1006 105.28 49.5606 104.747 49.1606 104.04C48.774 103.333 48.5806 102.473 48.5806 101.46V95.04H50.3806V101.22C50.3806 102.3 50.654 103.133 51.2006 103.72C51.7473 104.293 52.494 104.58 53.4406 104.58C54.414 104.58 55.1806 104.28 55.7406 103.68C56.3006 103.08 56.5806 102.207 56.5806 101.06V95.04H58.4006ZM63.2936 97.06C63.6536 96.4333 64.1869 95.9133 64.8936 95.5C65.6136 95.0733 66.4469 94.86 67.3936 94.86C68.3669 94.86 69.2469 95.0933 70.0336 95.56C70.8336 96.0267 71.4603 96.6867 71.9136 97.54C72.3669 98.38 72.5936 99.36 72.5936 100.48C72.5936 101.587 72.3669 102.573 71.9136 103.44C71.4603 104.307 70.8336 104.98 70.0336 105.46C69.2469 105.94 68.3669 106.18 67.3936 106.18C66.4603 106.18 65.6336 105.973 64.9136 105.56C64.2069 105.133 63.6669 104.607 63.2936 103.98V111.2H61.4736V95.04H63.2936V97.06ZM70.7336 100.48C70.7336 99.6533 70.5669 98.9333 70.2336 98.32C69.9003 97.7067 69.4469 97.24 68.8736 96.92C68.3136 96.6 67.6936 96.44 67.0136 96.44C66.3469 96.44 65.7269 96.6067 65.1536 96.94C64.5936 97.26 64.1403 97.7333 63.7936 98.36C63.4603 98.9733 63.2936 99.6867 63.2936 100.5C63.2936 101.327 63.4603 102.053 63.7936 102.68C64.1403 103.293 64.5936 103.767 65.1536 104.1C65.7269 104.42 66.3469 104.58 67.0136 104.58C67.6936 104.58 68.3136 104.42 68.8736 104.1C69.4469 103.767 69.9003 103.293 70.2336 102.68C70.5669 102.053 70.7336 101.32 70.7336 100.48ZM74.3092 100.48C74.3092 99.36 74.5359 98.38 74.9892 97.54C75.4426 96.6867 76.0626 96.0267 76.8492 95.56C77.6492 95.0933 78.5359 94.86 79.5092 94.86C80.4692 94.86 81.3026 95.0667 82.0092 95.48C82.7159 95.8933 83.2426 96.4133 83.5892 97.04V95.04H85.4292V106H83.5892V103.96C83.2292 104.6 82.6892 105.133 81.9692 105.56C81.2626 105.973 80.4359 106.18 79.4892 106.18C78.5159 106.18 77.6359 105.94 76.8492 105.46C76.0626 104.98 75.4426 104.307 74.9892 103.44C74.5359 102.573 74.3092 101.587 74.3092 100.48ZM83.5892 100.5C83.5892 99.6733 83.4226 98.9533 83.0892 98.34C82.7559 97.7267 82.3026 97.26 81.7292 96.94C81.1692 96.6067 80.5492 96.44 79.8692 96.44C79.1892 96.44 78.5692 96.6 78.0092 96.92C77.4492 97.24 77.0026 97.7067 76.6692 98.32C76.3359 98.9333 76.1692 99.6533 76.1692 100.48C76.1692 101.32 76.3359 102.053 76.6692 102.68C77.0026 103.293 77.4492 103.767 78.0092 104.1C78.5692 104.42 79.1892 104.58 79.8692 104.58C80.5492 104.58 81.1692 104.42 81.7292 104.1C82.3026 103.767 82.7559 103.293 83.0892 102.68C83.4226 102.053 83.5892 101.327 83.5892 100.5ZM90.7248 96.54V103C90.7248 103.533 90.8382 103.913 91.0648 104.14C91.2915 104.353 91.6848 104.46 92.2448 104.46H93.5848V106H91.9448C90.9315 106 90.1715 105.767 89.6648 105.3C89.1582 104.833 88.9048 104.067 88.9048 103V96.54H87.4848V95.04H88.9048V92.28H90.7248V95.04H93.5848V96.54H90.7248ZM98.01 96.54V103C98.01 103.533 98.1233 103.913 98.35 104.14C98.5767 104.353 98.97 104.46 99.53 104.46H100.87V106H99.23C98.2167 106 97.4567 105.767 96.95 105.3C96.4433 104.833 96.19 104.067 96.19 103V96.54H94.77V95.04H96.19V92.28H98.01V95.04H100.87V96.54H98.01ZM102.395 100.48C102.395 99.36 102.622 98.38 103.075 97.54C103.528 96.6867 104.148 96.0267 104.935 95.56C105.735 95.0933 106.622 94.86 107.595 94.86C108.555 94.86 109.388 95.0667 110.095 95.48C110.802 95.8933 111.328 96.4133 111.675 97.04V95.04H113.515V106H111.675V103.96C111.315 104.6 110.775 105.133 110.055 105.56C109.348 105.973 108.522 106.18 107.575 106.18C106.602 106.18 105.722 105.94 104.935 105.46C104.148 104.98 103.528 104.307 103.075 103.44C102.622 102.573 102.395 101.587 102.395 100.48ZM111.675 100.5C111.675 99.6733 111.508 98.9533 111.175 98.34C110.842 97.7267 110.388 97.26 109.815 96.94C109.255 96.6067 108.635 96.44 107.955 96.44C107.275 96.44 106.655 96.6 106.095 96.92C105.535 97.24 105.088 97.7067 104.755 98.32C104.422 98.9333 104.255 99.6533 104.255 100.48C104.255 101.32 104.422 102.053 104.755 102.68C105.088 103.293 105.535 103.767 106.095 104.1C106.655 104.42 107.275 104.58 107.955 104.58C108.635 104.58 109.255 104.42 109.815 104.1C110.388 103.767 110.842 103.293 111.175 102.68C111.508 102.053 111.675 101.327 111.675 100.5ZM120.471 106.18C119.631 106.18 118.877 106.04 118.211 105.76C117.544 105.467 117.017 105.067 116.631 104.56C116.244 104.04 116.031 103.447 115.991 102.78H117.871C117.924 103.327 118.177 103.773 118.631 104.12C119.097 104.467 119.704 104.64 120.451 104.64C121.144 104.64 121.691 104.487 122.091 104.18C122.491 103.873 122.691 103.487 122.691 103.02C122.691 102.54 122.477 102.187 122.051 101.96C121.624 101.72 120.964 101.487 120.071 101.26C119.257 101.047 118.591 100.833 118.071 100.62C117.564 100.393 117.124 100.067 116.751 99.64C116.391 99.2 116.211 98.6267 116.211 97.92C116.211 97.36 116.377 96.8467 116.711 96.38C117.044 95.9133 117.517 95.5467 118.131 95.28C118.744 95 119.444 94.86 120.231 94.86C121.444 94.86 122.424 95.1667 123.171 95.78C123.917 96.3933 124.317 97.2333 124.371 98.3H122.551C122.511 97.7267 122.277 97.2667 121.851 96.92C121.437 96.5733 120.877 96.4 120.171 96.4C119.517 96.4 118.997 96.54 118.611 96.82C118.224 97.1 118.031 97.4667 118.031 97.92C118.031 98.28 118.144 98.58 118.371 98.82C118.611 99.0467 118.904 99.2333 119.251 99.38C119.611 99.5133 120.104 99.6667 120.731 99.84C121.517 100.053 122.157 100.267 122.651 100.48C123.144 100.68 123.564 100.987 123.911 101.4C124.271 101.813 124.457 102.353 124.471 103.02C124.471 103.62 124.304 104.16 123.971 104.64C123.637 105.12 123.164 105.5 122.551 105.78C121.951 106.047 121.257 106.18 120.471 106.18Z" fill="black"/>
</svg>
