<svg width="195" height="210" viewBox="0 0 195 210" fill="none" xmlns="http://www.w3.org/2000/svg">
<rect width="195" height="210" rx="17" fill="#CFCBFF"/>
<path d="M36.36 70.54V75.2H41.44V76.7H36.36V81.5H42.04V83H34.54V69.04H42.04V70.54H36.36ZM47.0139 73.54V80C47.0139 80.5333 47.1272 80.9133 47.3539 81.14C47.5806 81.3533 47.9739 81.46 48.5339 81.46H49.8739V83H48.2339C47.2206 83 46.4606 82.7667 45.9539 82.3C45.4472 81.8333 45.1939 81.0667 45.1939 80V73.54H43.7739V72.04H45.1939V69.28H47.0139V72.04H49.8739V73.54H47.0139ZM57.5191 71.84C58.3457 71.84 59.0924 72.02 59.7591 72.38C60.4257 72.7267 60.9457 73.2533 61.3191 73.96C61.7057 74.6667 61.8991 75.5267 61.8991 76.54V83H60.0991V76.8C60.0991 75.7067 59.8257 74.8733 59.2791 74.3C58.7324 73.7133 57.9857 73.42 57.0391 73.42C56.0791 73.42 55.3124 73.72 54.7391 74.32C54.1791 74.92 53.8991 75.7933 53.8991 76.94V83H52.0791V68.2H53.8991V73.6C54.2591 73.04 54.7524 72.6067 55.3791 72.3C56.0191 71.9933 56.7324 71.84 57.5191 71.84ZM70.212 71.84C71.5454 71.84 72.6254 72.2467 73.452 73.06C74.2787 73.86 74.692 75.02 74.692 76.54V83H72.892V76.8C72.892 75.7067 72.6187 74.8733 72.072 74.3C71.5254 73.7133 70.7787 73.42 69.832 73.42C68.872 73.42 68.1054 73.72 67.532 74.32C66.972 74.92 66.692 75.7933 66.692 76.94V83H64.872V72.04H66.692V73.6C67.052 73.04 67.5387 72.6067 68.152 72.3C68.7787 71.9933 69.4654 71.84 70.212 71.84ZM78.605 70.26C78.2583 70.26 77.965 70.14 77.725 69.9C77.485 69.66 77.365 69.3667 77.365 69.02C77.365 68.6733 77.485 68.38 77.725 68.14C77.965 67.9 78.2583 67.78 78.605 67.78C78.9383 67.78 79.2183 67.9 79.445 68.14C79.685 68.38 79.805 68.6733 79.805 69.02C79.805 69.3667 79.685 69.66 79.445 69.9C79.2183 70.14 78.9383 70.26 78.605 70.26ZM79.485 72.04V83H77.665V72.04H79.485ZM81.9069 77.5C81.9069 76.3667 82.1335 75.38 82.5869 74.54C83.0402 73.6867 83.6669 73.0267 84.4669 72.56C85.2802 72.0933 86.2069 71.86 87.2469 71.86C88.5935 71.86 89.7002 72.1867 90.5669 72.84C91.4469 73.4933 92.0269 74.4 92.3069 75.56H90.3469C90.1602 74.8933 89.7935 74.3667 89.2469 73.98C88.7135 73.5933 88.0469 73.4 87.2469 73.4C86.2069 73.4 85.3669 73.76 84.7269 74.48C84.0869 75.1867 83.7669 76.1933 83.7669 77.5C83.7669 78.82 84.0869 79.84 84.7269 80.56C85.3669 81.28 86.2069 81.64 87.2469 81.64C88.0469 81.64 88.7135 81.4533 89.2469 81.08C89.7802 80.7067 90.1469 80.1733 90.3469 79.48H92.3069C92.0135 80.6 91.4269 81.5 90.5469 82.18C89.6669 82.8467 88.5669 83.18 87.2469 83.18C86.2069 83.18 85.2802 82.9467 84.4669 82.48C83.6669 82.0133 83.0402 81.3533 82.5869 80.5C82.1335 79.6467 81.9069 78.6467 81.9069 77.5ZM101.535 64.16L96.0553 86.4H94.2553L99.7153 64.16H101.535ZM36.36 103.06V117H34.54V103.06H36.36ZM44.8019 105.84C46.1352 105.84 47.2152 106.247 48.0419 107.06C48.8685 107.86 49.2819 109.02 49.2819 110.54V117H47.4819V110.8C47.4819 109.707 47.2085 108.873 46.6619 108.3C46.1152 107.713 45.3685 107.42 44.4219 107.42C43.4619 107.42 42.6952 107.72 42.1219 108.32C41.5619 108.92 41.2819 109.793 41.2819 110.94V117H39.4619V106.04H41.2819V107.6C41.6419 107.04 42.1285 106.607 42.7419 106.3C43.3685 105.993 44.0552 105.84 44.8019 105.84ZM51.5748 111.48C51.5748 110.36 51.8015 109.38 52.2548 108.54C52.7082 107.687 53.3282 107.027 54.1148 106.56C54.9148 106.093 55.8082 105.86 56.7948 105.86C57.6482 105.86 58.4415 106.06 59.1748 106.46C59.9082 106.847 60.4682 107.36 60.8548 108V102.2H62.6948V117H60.8548V114.94C60.4948 115.593 59.9615 116.133 59.2548 116.56C58.5482 116.973 57.7215 117.18 56.7748 117.18C55.8015 117.18 54.9148 116.94 54.1148 116.46C53.3282 115.98 52.7082 115.307 52.2548 114.44C51.8015 113.573 51.5748 112.587 51.5748 111.48ZM60.8548 111.5C60.8548 110.673 60.6882 109.953 60.3548 109.34C60.0215 108.727 59.5682 108.26 58.9948 107.94C58.4348 107.607 57.8148 107.44 57.1348 107.44C56.4548 107.44 55.8348 107.6 55.2748 107.92C54.7148 108.24 54.2682 108.707 53.9348 109.32C53.6015 109.933 53.4348 110.653 53.4348 111.48C53.4348 112.32 53.6015 113.053 53.9348 113.68C54.2682 114.293 54.7148 114.767 55.2748 115.1C55.8348 115.42 56.4548 115.58 57.1348 115.58C57.8148 115.58 58.4348 115.42 58.9948 115.1C59.5682 114.767 60.0215 114.293 60.3548 113.68C60.6882 113.053 60.8548 112.327 60.8548 111.5ZM70.5505 117.18C69.5238 117.18 68.5905 116.947 67.7505 116.48C66.9238 116.013 66.2705 115.353 65.7905 114.5C65.3238 113.633 65.0905 112.633 65.0905 111.5C65.0905 110.38 65.3305 109.393 65.8105 108.54C66.3038 107.673 66.9705 107.013 67.8105 106.56C68.6505 106.093 69.5905 105.86 70.6305 105.86C71.6705 105.86 72.6105 106.093 73.4505 106.56C74.2905 107.013 74.9505 107.667 75.4305 108.52C75.9238 109.373 76.1705 110.367 76.1705 111.5C76.1705 112.633 75.9171 113.633 75.4105 114.5C74.9171 115.353 74.2438 116.013 73.3905 116.48C72.5371 116.947 71.5905 117.18 70.5505 117.18ZM70.5505 115.58C71.2038 115.58 71.8171 115.427 72.3905 115.12C72.9638 114.813 73.4238 114.353 73.7705 113.74C74.1305 113.127 74.3105 112.38 74.3105 111.5C74.3105 110.62 74.1371 109.873 73.7905 109.26C73.4438 108.647 72.9905 108.193 72.4305 107.9C71.8705 107.593 71.2638 107.44 70.6105 107.44C69.9438 107.44 69.3305 107.593 68.7705 107.9C68.2238 108.193 67.7838 108.647 67.4505 109.26C67.1171 109.873 66.9505 110.62 66.9505 111.5C66.9505 112.393 67.1105 113.147 67.4305 113.76C67.7638 114.373 68.2038 114.833 68.7505 115.14C69.2971 115.433 69.8971 115.58 70.5505 115.58ZM93.1634 106.04L89.7434 117H87.8634L85.2234 108.3L82.5834 117H80.7034L77.2634 106.04H79.1234L81.6434 115.24L84.3634 106.04H86.2234L88.8834 115.26L91.3634 106.04H93.1634ZM104.97 111.1C104.97 111.447 104.95 111.813 104.91 112.2H96.1497C96.2164 113.28 96.583 114.127 97.2497 114.74C97.9297 115.34 98.7497 115.64 99.7097 115.64C100.496 115.64 101.15 115.46 101.67 115.1C102.203 114.727 102.576 114.233 102.79 113.62H104.75C104.456 114.673 103.87 115.533 102.99 116.2C102.11 116.853 101.016 117.18 99.7097 117.18C98.6697 117.18 97.7364 116.947 96.9097 116.48C96.0964 116.013 95.4564 115.353 94.9897 114.5C94.523 113.633 94.2897 112.633 94.2897 111.5C94.2897 110.367 94.5164 109.373 94.9697 108.52C95.423 107.667 96.0564 107.013 96.8697 106.56C97.6964 106.093 98.643 105.86 99.7097 105.86C100.75 105.86 101.67 106.087 102.47 106.54C103.27 106.993 103.883 107.62 104.31 108.42C104.75 109.207 104.97 110.1 104.97 111.1ZM103.09 110.72C103.09 110.027 102.936 109.433 102.63 108.94C102.323 108.433 101.903 108.053 101.37 107.8C100.85 107.533 100.27 107.4 99.6297 107.4C98.7097 107.4 97.923 107.693 97.2697 108.28C96.6297 108.867 96.263 109.68 96.1697 110.72H103.09ZM111.252 117.18C110.412 117.18 109.659 117.04 108.992 116.76C108.325 116.467 107.799 116.067 107.412 115.56C107.025 115.04 106.812 114.447 106.772 113.78H108.652C108.705 114.327 108.959 114.773 109.412 115.12C109.879 115.467 110.485 115.64 111.232 115.64C111.925 115.64 112.472 115.487 112.872 115.18C113.272 114.873 113.472 114.487 113.472 114.02C113.472 113.54 113.259 113.187 112.832 112.96C112.405 112.72 111.745 112.487 110.852 112.26C110.039 112.047 109.372 111.833 108.852 111.62C108.345 111.393 107.905 111.067 107.532 110.64C107.172 110.2 106.992 109.627 106.992 108.92C106.992 108.36 107.159 107.847 107.492 107.38C107.825 106.913 108.299 106.547 108.912 106.28C109.525 106 110.225 105.86 111.012 105.86C112.225 105.86 113.205 106.167 113.952 106.78C114.699 107.393 115.099 108.233 115.152 109.3H113.332C113.292 108.727 113.059 108.267 112.632 107.92C112.219 107.573 111.659 107.4 110.952 107.4C110.299 107.4 109.779 107.54 109.392 107.82C109.005 108.1 108.812 108.467 108.812 108.92C108.812 109.28 108.925 109.58 109.152 109.82C109.392 110.047 109.685 110.233 110.032 110.38C110.392 110.513 110.885 110.667 111.512 110.84C112.299 111.053 112.939 111.267 113.432 111.48C113.925 111.68 114.345 111.987 114.692 112.4C115.052 112.813 115.239 113.353 115.252 114.02C115.252 114.62 115.085 115.16 114.752 115.64C114.419 116.12 113.945 116.5 113.332 116.78C112.732 117.047 112.039 117.18 111.252 117.18ZM120.041 107.54V114C120.041 114.533 120.155 114.913 120.381 115.14C120.608 115.353 121.001 115.46 121.561 115.46H122.901V117H121.261C120.248 117 119.488 116.767 118.981 116.3C118.475 115.833 118.221 115.067 118.221 114V107.54H116.801V106.04H118.221V103.28H120.041V106.04H122.901V107.54H120.041ZM135.106 111.1C135.106 111.447 135.086 111.813 135.046 112.2H126.286C126.353 113.28 126.72 114.127 127.386 114.74C128.066 115.34 128.886 115.64 129.846 115.64C130.633 115.64 131.286 115.46 131.806 115.1C132.34 114.727 132.713 114.233 132.926 113.62H134.886C134.593 114.673 134.006 115.533 133.126 116.2C132.246 116.853 131.153 117.18 129.846 117.18C128.806 117.18 127.873 116.947 127.046 116.48C126.233 116.013 125.593 115.353 125.126 114.5C124.66 113.633 124.426 112.633 124.426 111.5C124.426 110.367 124.653 109.373 125.106 108.52C125.56 107.667 126.193 107.013 127.006 106.56C127.833 106.093 128.78 105.86 129.846 105.86C130.886 105.86 131.806 106.087 132.606 106.54C133.406 106.993 134.02 107.62 134.446 108.42C134.886 109.207 135.106 110.1 135.106 111.1ZM133.226 110.72C133.226 110.027 133.073 109.433 132.766 108.94C132.46 108.433 132.04 108.053 131.506 107.8C130.986 107.533 130.406 107.4 129.766 107.4C128.846 107.4 128.06 107.693 127.406 108.28C126.766 108.867 126.4 109.68 126.306 110.72H133.226ZM139.329 107.82C139.649 107.193 140.102 106.707 140.689 106.36C141.289 106.013 142.015 105.84 142.869 105.84V107.72H142.389C140.349 107.72 139.329 108.827 139.329 111.04V117H137.509V106.04H139.329V107.82ZM150.31 105.84C151.643 105.84 152.723 106.247 153.55 107.06C154.376 107.86 154.79 109.02 154.79 110.54V117H152.99V110.8C152.99 109.707 152.716 108.873 152.17 108.3C151.623 107.713 150.876 107.42 149.93 107.42C148.97 107.42 148.203 107.72 147.63 108.32C147.07 108.92 146.79 109.793 146.79 110.94V117H144.97V106.04H146.79V107.6C147.15 107.04 147.636 106.607 148.25 106.3C148.876 105.993 149.563 105.84 150.31 105.84ZM38.88 137.06C40.4 137.06 41.7133 137.347 42.82 137.92C43.94 138.48 44.7933 139.287 45.38 140.34C45.98 141.393 46.28 142.633 46.28 144.06C46.28 145.487 45.98 146.727 45.38 147.78C44.7933 148.82 43.94 149.62 42.82 150.18C41.7133 150.727 40.4 151 38.88 151H34.54V137.06H38.88ZM38.88 149.5C40.68 149.5 42.0533 149.027 43 148.08C43.9467 147.12 44.42 145.78 44.42 144.06C44.42 142.327 43.94 140.973 42.98 140C42.0333 139.027 40.6667 138.54 38.88 138.54H36.36V149.5H38.88ZM50.5006 141.82C50.8206 141.193 51.274 140.707 51.8606 140.36C52.4606 140.013 53.1873 139.84 54.0406 139.84V141.72H53.5606C51.5206 141.72 50.5006 142.827 50.5006 145.04V151H48.6806V140.04H50.5006V141.82ZM66.1416 145.1C66.1416 145.447 66.1216 145.813 66.0816 146.2H57.3216C57.3882 147.28 57.7549 148.127 58.4216 148.74C59.1016 149.34 59.9216 149.64 60.8816 149.64C61.6682 149.64 62.3216 149.46 62.8416 149.1C63.3749 148.727 63.7482 148.233 63.9616 147.62H65.9216C65.6282 148.673 65.0416 149.533 64.1616 150.2C63.2816 150.853 62.1882 151.18 60.8816 151.18C59.8416 151.18 58.9082 150.947 58.0816 150.48C57.2682 150.013 56.6282 149.353 56.1616 148.5C55.6949 147.633 55.4616 146.633 55.4616 145.5C55.4616 144.367 55.6882 143.373 56.1416 142.52C56.5949 141.667 57.2282 141.013 58.0416 140.56C58.8682 140.093 59.8149 139.86 60.8816 139.86C61.9216 139.86 62.8416 140.087 63.6416 140.54C64.4416 140.993 65.0549 141.62 65.4816 142.42C65.9216 143.207 66.1416 144.1 66.1416 145.1ZM64.2616 144.72C64.2616 144.027 64.1082 143.433 63.8016 142.94C63.4949 142.433 63.0749 142.053 62.5416 141.8C62.0216 141.533 61.4416 141.4 60.8016 141.4C59.8816 141.4 59.0949 141.693 58.4416 142.28C57.8016 142.867 57.4349 143.68 57.3416 144.72H64.2616ZM72.4239 151.18C71.5839 151.18 70.8306 151.04 70.1639 150.76C69.4972 150.467 68.9706 150.067 68.5839 149.56C68.1972 149.04 67.9839 148.447 67.9439 147.78H69.8239C69.8772 148.327 70.1306 148.773 70.5839 149.12C71.0506 149.467 71.6572 149.64 72.4039 149.64C73.0972 149.64 73.6439 149.487 74.0439 149.18C74.4439 148.873 74.6439 148.487 74.6439 148.02C74.6439 147.54 74.4306 147.187 74.0039 146.96C73.5772 146.72 72.9172 146.487 72.0239 146.26C71.2106 146.047 70.5439 145.833 70.0239 145.62C69.5172 145.393 69.0772 145.067 68.7039 144.64C68.3439 144.2 68.1639 143.627 68.1639 142.92C68.1639 142.36 68.3306 141.847 68.6639 141.38C68.9972 140.913 69.4706 140.547 70.0839 140.28C70.6972 140 71.3972 139.86 72.1839 139.86C73.3972 139.86 74.3772 140.167 75.1239 140.78C75.8706 141.393 76.2706 142.233 76.3239 143.3H74.5039C74.4639 142.727 74.2306 142.267 73.8039 141.92C73.3906 141.573 72.8306 141.4 72.1239 141.4C71.4706 141.4 70.9506 141.54 70.5639 141.82C70.1772 142.1 69.9839 142.467 69.9839 142.92C69.9839 143.28 70.0972 143.58 70.3239 143.82C70.5639 144.047 70.8572 144.233 71.2039 144.38C71.5639 144.513 72.0572 144.667 72.6839 144.84C73.4706 145.053 74.1106 145.267 74.6039 145.48C75.0972 145.68 75.5172 145.987 75.8639 146.4C76.2239 146.813 76.4106 147.353 76.4239 148.02C76.4239 148.62 76.2572 149.16 75.9239 149.64C75.5906 150.12 75.1172 150.5 74.5039 150.78C73.9039 151.047 73.2106 151.18 72.4239 151.18ZM82.8731 151.18C82.0331 151.18 81.2798 151.04 80.6131 150.76C79.9465 150.467 79.4198 150.067 79.0331 149.56C78.6465 149.04 78.4331 148.447 78.3931 147.78H80.2731C80.3265 148.327 80.5798 148.773 81.0331 149.12C81.4998 149.467 82.1065 149.64 82.8531 149.64C83.5465 149.64 84.0931 149.487 84.4931 149.18C84.8931 148.873 85.0931 148.487 85.0931 148.02C85.0931 147.54 84.8798 147.187 84.4531 146.96C84.0265 146.72 83.3665 146.487 82.4731 146.26C81.6598 146.047 80.9931 145.833 80.4731 145.62C79.9665 145.393 79.5265 145.067 79.1531 144.64C78.7931 144.2 78.6131 143.627 78.6131 142.92C78.6131 142.36 78.7798 141.847 79.1131 141.38C79.4465 140.913 79.9198 140.547 80.5331 140.28C81.1465 140 81.8465 139.86 82.6331 139.86C83.8465 139.86 84.8265 140.167 85.5731 140.78C86.3198 141.393 86.7198 142.233 86.7731 143.3H84.9531C84.9131 142.727 84.6798 142.267 84.2531 141.92C83.8398 141.573 83.2798 141.4 82.5731 141.4C81.9198 141.4 81.3998 141.54 81.0131 141.82C80.6265 142.1 80.4331 142.467 80.4331 142.92C80.4331 143.28 80.5465 143.58 80.7731 143.82C81.0131 144.047 81.3065 144.233 81.6531 144.38C82.0131 144.513 82.5065 144.667 83.1331 144.84C83.9198 145.053 84.5598 145.267 85.0531 145.48C85.5465 145.68 85.9665 145.987 86.3131 146.4C86.6731 146.813 86.8598 147.353 86.8731 148.02C86.8731 148.62 86.7065 149.16 86.3731 149.64C86.0398 150.12 85.5665 150.5 84.9531 150.78C84.3531 151.047 83.6598 151.18 82.8731 151.18ZM99.4423 145.1C99.4423 145.447 99.4223 145.813 99.3823 146.2H90.6223C90.689 147.28 91.0557 148.127 91.7223 148.74C92.4023 149.34 93.2223 149.64 94.1823 149.64C94.969 149.64 95.6223 149.46 96.1423 149.1C96.6757 148.727 97.049 148.233 97.2623 147.62H99.2223C98.929 148.673 98.3423 149.533 97.4623 150.2C96.5823 150.853 95.489 151.18 94.1823 151.18C93.1423 151.18 92.209 150.947 91.3823 150.48C90.569 150.013 89.929 149.353 89.4623 148.5C88.9957 147.633 88.7623 146.633 88.7623 145.5C88.7623 144.367 88.989 143.373 89.4423 142.52C89.8957 141.667 90.529 141.013 91.3423 140.56C92.169 140.093 93.1157 139.86 94.1823 139.86C95.2223 139.86 96.1423 140.087 96.9423 140.54C97.7423 140.993 98.3557 141.62 98.7823 142.42C99.2223 143.207 99.4423 144.1 99.4423 145.1ZM97.5623 144.72C97.5623 144.027 97.409 143.433 97.1023 142.94C96.7957 142.433 96.3757 142.053 95.8423 141.8C95.3223 141.533 94.7423 141.4 94.1023 141.4C93.1823 141.4 92.3957 141.693 91.7423 142.28C91.1023 142.867 90.7357 143.68 90.6423 144.72H97.5623ZM105.725 151.18C104.885 151.18 104.131 151.04 103.465 150.76C102.798 150.467 102.271 150.067 101.885 149.56C101.498 149.04 101.285 148.447 101.245 147.78H103.125C103.178 148.327 103.431 148.773 103.885 149.12C104.351 149.467 104.958 149.64 105.705 149.64C106.398 149.64 106.945 149.487 107.345 149.18C107.745 148.873 107.945 148.487 107.945 148.02C107.945 147.54 107.731 147.187 107.305 146.96C106.878 146.72 106.218 146.487 105.325 146.26C104.511 146.047 103.845 145.833 103.325 145.62C102.818 145.393 102.378 145.067 102.005 144.64C101.645 144.2 101.465 143.627 101.465 142.92C101.465 142.36 101.631 141.847 101.965 141.38C102.298 140.913 102.771 140.547 103.385 140.28C103.998 140 104.698 139.86 105.485 139.86C106.698 139.86 107.678 140.167 108.425 140.78C109.171 141.393 109.571 142.233 109.625 143.3H107.805C107.765 142.727 107.531 142.267 107.105 141.92C106.691 141.573 106.131 141.4 105.425 141.4C104.771 141.4 104.251 141.54 103.865 141.82C103.478 142.1 103.285 142.467 103.285 142.92C103.285 143.28 103.398 143.58 103.625 143.82C103.865 144.047 104.158 144.233 104.505 144.38C104.865 144.513 105.358 144.667 105.985 144.84C106.771 145.053 107.411 145.267 107.905 145.48C108.398 145.68 108.818 145.987 109.165 146.4C109.525 146.813 109.711 147.353 109.725 148.02C109.725 148.62 109.558 149.16 109.225 149.64C108.891 150.12 108.418 150.5 107.805 150.78C107.205 151.047 106.511 151.18 105.725 151.18Z" fill="black"/>
</svg>
