<svg width="195" height="210" viewBox="0 0 195 210" fill="none" xmlns="http://www.w3.org/2000/svg">
<rect width="195" height="210" rx="17" fill="#CFCBFF"/>
<path d="M48.1 106L42.36 99.64V106H40.54V92.06H42.36V98.52L48.12 92.06H50.42L44.1 99.04L50.48 106H48.1ZM62.2327 95.04V106H60.4127V104.38C60.066 104.94 59.5793 105.38 58.9527 105.7C58.3393 106.007 57.6593 106.16 56.9127 106.16C56.0593 106.16 55.2927 105.987 54.6127 105.64C53.9327 105.28 53.3927 104.747 52.9927 104.04C52.606 103.333 52.4127 102.473 52.4127 101.46V95.04H54.2127V101.22C54.2127 102.3 54.486 103.133 55.0327 103.72C55.5793 104.293 56.326 104.58 57.2727 104.58C58.246 104.58 59.0127 104.28 59.5727 103.68C60.1327 103.08 60.4127 102.207 60.4127 101.06V95.04H62.2327ZM67.1256 96.82C67.4456 96.1933 67.899 95.7067 68.4856 95.36C69.0856 95.0133 69.8123 94.84 70.6656 94.84V96.72H70.1856C68.1456 96.72 67.1256 97.8267 67.1256 100.04V106H65.3056V95.04H67.1256V96.82ZM74.9866 96.54V103C74.9866 103.533 75.0999 103.913 75.3266 104.14C75.5532 104.353 75.9466 104.46 76.5066 104.46H77.8466V106H76.2066C75.1932 106 74.4332 105.767 73.9266 105.3C73.4199 104.833 73.1666 104.067 73.1666 103V96.54H71.7466V95.04H73.1666V92.28H74.9866V95.04H77.8466V96.54H74.9866ZM79.3717 100.48C79.3717 99.36 79.5984 98.38 80.0517 97.54C80.5051 96.6867 81.1251 96.0267 81.9117 95.56C82.7117 95.0933 83.5984 94.86 84.5717 94.86C85.5317 94.86 86.3651 95.0667 87.0717 95.48C87.7784 95.8933 88.3051 96.4133 88.6517 97.04V95.04H90.4917V106H88.6517V103.96C88.2917 104.6 87.7517 105.133 87.0317 105.56C86.3251 105.973 85.4984 106.18 84.5517 106.18C83.5784 106.18 82.6984 105.94 81.9117 105.46C81.1251 104.98 80.5051 104.307 80.0517 103.44C79.5984 102.573 79.3717 101.587 79.3717 100.48ZM88.6517 100.5C88.6517 99.6733 88.4851 98.9533 88.1517 98.34C87.8184 97.7267 87.3651 97.26 86.7917 96.94C86.2317 96.6067 85.6117 96.44 84.9317 96.44C84.2517 96.44 83.6317 96.6 83.0717 96.92C82.5117 97.24 82.0651 97.7067 81.7317 98.32C81.3984 98.9333 81.2317 99.6533 81.2317 100.48C81.2317 101.32 81.3984 102.053 81.7317 102.68C82.0651 103.293 82.5117 103.767 83.0717 104.1C83.6317 104.42 84.2517 104.58 84.9317 104.58C85.6117 104.58 86.2317 104.42 86.7917 104.1C87.3651 103.767 87.8184 103.293 88.1517 102.68C88.4851 102.053 88.6517 101.327 88.6517 100.5ZM97.4473 106.18C96.6073 106.18 95.854 106.04 95.1873 105.76C94.5207 105.467 93.994 105.067 93.6073 104.56C93.2207 104.04 93.0073 103.447 92.9673 102.78H94.8473C94.9007 103.327 95.154 103.773 95.6073 104.12C96.074 104.467 96.6807 104.64 97.4273 104.64C98.1207 104.64 98.6673 104.487 99.0673 104.18C99.4673 103.873 99.6673 103.487 99.6673 103.02C99.6673 102.54 99.454 102.187 99.0273 101.96C98.6007 101.72 97.9407 101.487 97.0473 101.26C96.234 101.047 95.5673 100.833 95.0473 100.62C94.5407 100.393 94.1007 100.067 93.7273 99.64C93.3673 99.2 93.1873 98.6267 93.1873 97.92C93.1873 97.36 93.354 96.8467 93.6873 96.38C94.0207 95.9133 94.494 95.5467 95.1073 95.28C95.7207 95 96.4207 94.86 97.2073 94.86C98.4207 94.86 99.4007 95.1667 100.147 95.78C100.894 96.3933 101.294 97.2333 101.347 98.3H99.5273C99.4873 97.7267 99.254 97.2667 98.8273 96.92C98.414 96.5733 97.854 96.4 97.1473 96.4C96.494 96.4 95.974 96.54 95.5873 96.82C95.2007 97.1 95.0073 97.4667 95.0073 97.92C95.0073 98.28 95.1207 98.58 95.3473 98.82C95.5873 99.0467 95.8807 99.2333 96.2273 99.38C96.5873 99.5133 97.0807 99.6667 97.7073 99.84C98.494 100.053 99.134 100.267 99.6273 100.48C100.121 100.68 100.541 100.987 100.887 101.4C101.247 101.813 101.434 102.353 101.447 103.02C101.447 103.62 101.281 104.16 100.947 104.64C100.614 105.12 100.141 105.5 99.5273 105.78C98.9273 106.047 98.234 106.18 97.4473 106.18Z" fill="black"/>
</svg>
