<svg width="190" height="82" viewBox="0 0 190 82" fill="none" xmlns="http://www.w3.org/2000/svg">
<path d="M175.193 52.9852L188.867 41.0208" stroke="#587731" stroke-linecap="round"/>
<path d="M176.048 55.549L188.867 43.5846" stroke="#587731" stroke-linecap="round"/>
<path d="M173.381 51.4773L185.672 40.7296" stroke="#587731" stroke-linecap="round"/>
<path d="M176.048 58.9674L188.867 46.1484" stroke="#587731" stroke-linecap="round"/>
<path d="M170.066 51.2759L183.122 40.4636" stroke="#587731" stroke-linecap="round"/>
<path d="M182.03 67.0861C176.048 68.368 165.701 74.4251 158.683 66.6588C152.119 59.3947 159.383 50.8487 161.092 44.8665" stroke="#587731" stroke-linecap="round"/>
<path d="M163.656 44.0119C160.807 48.9971 155.537 60.2493 160.665 65.3769C165.793 70.5045 177.045 67.5134 181.603 65.3769" stroke="#587731" stroke-linecap="round"/>
<path d="M167.929 41.8754C163.798 47.003 156.905 58.4546 162.374 63.2404C167.844 68.0262 179.181 64.6647 184.166 62.3858" stroke="#587731" stroke-linecap="round"/>
<path d="M179.466 40.5935L167.502 51.276L176.475 60.2493L188.867 49.1395" stroke="#587731" stroke-linecap="round"/>
<path d="M174.338 40.5935C171.49 43.727 165.792 50.5069 165.792 52.5579C165.792 54.609 172.344 59.6796 175.62 61.9585L188.867 53.4125" stroke="#587731" stroke-linecap="round"/>
<path d="M170.493 41.0208C168.356 44.2968 163.827 51.4469 162.802 53.8398C161.776 56.2327 170.066 61.3888 174.339 63.6677C177.615 62.6707 184.85 60.1639 187.585 58.1128" stroke="#587731" stroke-linecap="round"/>
<path d="M156.787 48.7122C156.502 50.4214 154.757 54.3612 154.223 57.6855C153.401 62.8131 155.363 65.5193 156.787 67.5134C158.354 69.6499 163.709 72.8102 167.929 72.2137C170.952 71.7864 176.475 70.0772 178.184 72.2137" stroke="#587731" stroke-linecap="round"/>
<path d="M172.312 66.118C173.966 64.3882 175.429 62.2342 176.163 60.0685C176.898 57.9036 176.926 55.6472 175.566 53.8309C174.225 52.0392 172.311 51.3348 170.111 51.3932C167.934 51.451 165.453 52.2523 162.874 53.4823C159.903 54.8997 158.378 57.1216 157.946 59.452C157.518 61.7624 158.173 64.1366 159.474 65.875C162.102 69.3865 168.208 70.4086 172.312 66.118Z" fill="#AB813F" stroke="#77C343"/>
<path d="M171.014 57.5429C173.155 60.4035 172.053 64.8465 169.464 66.7835C166.876 68.7206 163.043 67.9719 160.902 65.1113C158.761 62.2508 159.123 58.3615 161.711 56.4245C164.3 54.4875 168.873 54.6824 171.014 57.5429Z" fill="#38B6DF"/>
<path d="M170.356 57.9867C171.987 60.1662 172.248 63.7539 170.114 65.3509C166.602 67.9796 165.37 63.7709 164.631 62.7844C163.893 61.7978 159.254 59.6261 163.468 56.4717C165.602 54.8747 168.725 55.8072 170.356 57.9867Z" fill="#5F3A37"/>
<path d="M169.876 58.3741C171.326 60.3114 171.624 63.4508 169.819 64.8021C166.847 67.0264 165.699 63.3247 165.043 62.4477C164.387 61.5708 160.345 59.5786 163.912 56.9095C165.717 55.5582 168.426 56.4368 169.876 58.3741Z" fill="#251C7A"/>
<path d="M30.2462 43.3864C31.2033 44.4256 31.9827 45.6015 32.5843 46.9142C33.2133 48.2268 33.5278 49.4848 33.5278 50.6881C33.5278 51.3717 33.3911 52.0965 33.1176 52.8622C33.938 53.3544 34.7174 53.6005 35.4558 53.6005C36.8232 53.6005 38.2179 53.245 39.6399 52.534V55.6516C38.9836 55.843 38.423 55.9387 37.9581 55.9387C36.0438 55.9387 34.2252 55.3234 32.5023 54.0928C31.7366 55.1593 30.7931 55.9524 29.6719 56.472C28.578 56.9643 27.3884 57.2104 26.1031 57.2104C25.6382 57.2104 25.2826 57.1967 25.0365 57.1694C27.279 60.369 29.371 62.8713 31.3127 64.6762C33.2817 66.4811 34.8952 67.3836 36.1532 67.3836C36.8095 67.3836 37.4522 66.9597 38.0811 66.1119L40.8295 68.327C40.4467 68.7646 39.9544 69.1064 39.3528 69.3526C38.7511 69.626 38.1358 69.7628 37.5068 69.7628C35.8934 69.7628 33.7193 68.5458 30.9845 66.1119C28.2498 63.678 25.8022 60.9159 23.6418 57.8257C21.5087 54.7355 20.4422 52.3563 20.4422 50.6881C20.4422 49.8677 20.8114 49.184 21.5497 48.637C22.2881 48.0901 23.1359 47.8166 24.093 47.8166C25.0502 47.8166 25.98 48.2542 26.8824 49.1293C27.8123 49.977 28.537 51.112 29.0566 52.534C29.6582 52.1785 30.1231 51.7136 30.4513 51.1393C30.8068 50.5377 30.9845 49.895 30.9845 49.2113C30.9845 48.2542 30.7384 47.2697 30.2462 46.2578C29.7539 45.2186 29.0702 44.2615 28.1951 43.3864H18.2271V40.1047H27.2106L30.2462 43.3864ZM39.0656 43.3864H32.1331L29.0976 40.1047H39.0656V43.3864ZM25.2006 50.6881C24.599 50.6881 24.0383 50.8658 23.5187 51.2213C23.0265 51.5495 22.7804 51.9324 22.7804 52.3699C22.7804 52.8348 22.9034 53.2587 23.1496 53.6416C23.423 53.9971 23.7375 54.1748 24.093 54.1748C25.5151 54.1748 26.8414 53.8467 28.0721 53.1903C27.8533 52.5067 27.4567 51.9187 26.8824 51.4264C26.3355 50.9342 25.7749 50.6881 25.2006 50.6881Z" fill="#3E3E3E"/>
<path d="M56.3947 43.3864V63.8147C56.3947 64.4164 56.8323 65.1274 57.7074 65.9478C58.6098 66.7409 59.649 67.4382 60.825 68.0399C62.0282 68.6142 63.0401 68.9013 63.8605 68.9013C64.2434 68.9013 64.6262 68.7919 65.0091 68.5732C65.3919 68.3544 65.7201 68.0536 65.9936 67.6707L68.9881 69.5987C68.2224 70.4464 67.3746 70.8703 66.4448 70.8703C64.8313 70.8703 62.958 70.3234 60.825 69.2295C58.7192 68.1356 56.9006 66.8503 55.3692 65.3735C53.8377 63.8694 53.072 62.6115 53.072 61.5996V58.6871C52.443 59.3982 51.7047 59.9451 50.8569 60.328C50.0365 60.7108 49.1887 60.9023 48.3136 60.9023C46.7001 60.9023 45.1413 60.4647 43.6372 59.5896C42.1605 58.6871 40.9572 57.5659 40.0274 56.2259C39.1249 54.8859 38.6737 53.5869 38.6737 52.3289C38.6737 51.3171 38.9882 50.3736 39.6172 49.4985C40.2735 48.6234 41.1349 47.9397 42.2015 47.4474C43.268 46.9278 44.4029 46.668 45.6062 46.668C47.0283 46.668 48.3956 47.0099 49.7083 47.6935C51.021 48.3772 52.1285 49.3344 53.031 50.565V43.3864H36.3355V40.1047H53.113L56.3947 43.3864ZM61.1531 43.3864H58.2406L55 40.1047H61.1531V43.3864ZM48.4367 49.2523C47.2607 49.2523 46.1395 49.5121 45.073 50.0317C44.0338 50.5513 43.186 51.2487 42.5297 52.1238C41.8733 52.9716 41.5452 53.874 41.5452 54.8312C41.5452 55.7336 41.9827 56.554 42.8578 57.2924C43.7329 58.0035 44.6764 58.359 45.6883 58.359C47.1103 58.359 48.4914 57.9898 49.8314 57.2514C51.1714 56.513 52.2379 55.5012 53.031 54.2159V52.4109C52.4294 51.4538 51.7047 50.6881 50.8569 50.1138C50.0365 49.5395 49.2297 49.2523 48.4367 49.2523Z" fill="#3E3E3E"/>
<path d="M72.8902 43.3864C74.9686 46.4493 76.0078 49.4711 76.0078 52.452C76.0078 53.6279 75.7343 54.7902 75.1874 55.9387C74.6404 57.06 73.9157 57.9898 73.0133 58.7282C72.1382 59.4392 71.2357 59.7947 70.3059 59.7947C69.0206 59.7947 67.6669 59.2888 66.2448 58.2769C64.8501 57.2377 63.6742 55.9934 62.717 54.544C61.7872 53.0673 61.3223 51.7409 61.3223 50.565C61.3223 47.885 61.7325 45.4921 62.553 43.3864H58.4099V40.1047H82.7762L86.0169 43.3864V63.8147C86.0169 64.4164 86.4544 65.1274 87.3295 65.9478C88.232 66.7409 89.2849 67.4382 90.4882 68.0399C91.6914 68.6142 92.7033 68.9013 93.5237 68.9013C93.9066 68.9013 94.2894 68.7919 94.6723 68.5732C95.0551 68.3817 95.3696 68.0809 95.6158 67.6707L98.6513 69.5987C97.8582 70.4464 96.9968 70.8703 96.067 70.8703C94.4808 70.8703 92.6212 70.3234 90.4882 69.2295C88.3551 68.163 86.5091 66.8913 84.9503 65.4146C83.4189 63.9105 82.6532 62.6251 82.6532 61.5586V43.3864H72.8902ZM84.6222 40.1047H90.8163V43.3864H87.9038L84.6222 40.1047ZM68.2549 57.2104C69.0753 57.2104 69.882 56.8275 70.6751 56.0618C71.4955 55.2687 72.1518 54.2706 72.6441 53.0673C73.1637 51.864 73.4235 50.6607 73.4235 49.4574C73.4235 48.5823 73.2184 47.6252 72.8082 46.586C72.4253 45.5468 71.851 44.4802 71.0853 43.3864H66.1628C65.0689 46.3672 64.522 49.6215 64.522 53.1493C64.522 53.7236 64.7134 54.3389 65.0962 54.9953C65.4791 55.6242 65.9577 56.1575 66.532 56.5951C67.1336 57.0053 67.7079 57.2104 68.2549 57.2104Z" fill="#3E3E3E"/>
<path d="M88.3358 40.1047H93.1763L96.458 43.3864V63.8147C96.458 64.4164 96.8955 65.1274 97.7706 65.9478C98.6457 66.7409 99.6713 67.4382 100.847 68.0399C102.05 68.6142 103.062 68.9013 103.883 68.9013C104.266 68.9013 104.648 68.7919 105.031 68.5732C105.442 68.3544 105.783 68.0536 106.057 67.6707L109.051 69.5987C108.286 70.4464 107.424 70.8703 106.467 70.8703C104.881 70.8703 103.021 70.3234 100.888 69.2295C98.7825 68.1356 96.9502 66.8503 95.3914 65.3735C93.86 63.8694 93.0943 62.5704 93.0943 61.4766V43.3864H88.3358V40.1047ZM95.0633 40.1047H101.216V43.3864H98.3039L95.0633 40.1047Z" fill="#3E3E3E"/>
<path d="M86.4982 32.3928C86.4982 31.5724 86.758 30.7519 87.2776 29.9315C87.7699 29.0838 88.4125 28.3864 89.2056 27.8395C89.9987 27.2925 90.7917 27.019 91.5848 27.019C92.2958 27.019 93.0752 27.3062 93.923 27.8805C94.7708 28.4548 95.6185 29.2615 96.4663 30.3007L95.4818 31.1621C94.8802 30.5058 94.2375 30.1776 93.5538 30.1776C92.9522 30.1776 92.3779 30.3964 91.8309 30.834C91.2567 31.2442 90.7917 31.7911 90.4362 32.4748C90.0807 33.1585 89.903 33.8422 89.903 34.5259C89.903 35.3736 90.1764 36.2487 90.7234 37.1512C91.2703 38.0263 92.1044 39.0108 93.2256 40.1047H91.7079C90.1217 38.792 88.8638 37.452 87.934 36.0846C86.9768 34.6899 86.4982 33.4593 86.4982 32.3928Z" fill="#3E3E3E"/>
<path d="M106.267 39.5714C107.443 39.5714 108.633 39.9269 109.836 40.638C111.067 41.349 112.079 42.2378 112.872 43.3043C113.692 44.3709 114.102 45.3964 114.102 46.3809C114.102 47.2013 113.87 47.9944 113.405 48.7601C112.94 49.4985 112.284 50.1548 111.436 50.7291C112.092 50.9752 112.844 51.0983 113.692 51.0983C116.4 51.0983 119.066 50.2915 121.691 48.678V43.3864H117.302L114.266 40.1047H121.609L125.096 43.3864V63.8147C125.096 64.389 125.52 65.0864 126.368 65.9068C127.243 66.7272 128.268 67.4382 129.444 68.0399C130.647 68.6142 131.687 68.9013 132.562 68.9013C133.327 68.9013 134.052 68.4911 134.736 67.6707L137.689 69.5987C136.951 70.4464 136.09 70.8703 135.105 70.8703C133.574 70.8703 131.741 70.3234 129.608 69.2295C127.475 68.163 125.616 66.8913 124.029 65.4146C122.471 63.9105 121.691 62.6251 121.691 61.5586V51.9187C120.105 52.7391 118.245 53.1493 116.112 53.1493C114.636 53.1493 112.749 52.6981 110.452 51.7956C107.99 53.1356 106.049 54.5167 104.627 55.9387C103.205 57.3608 102.493 58.6735 102.493 59.8767C102.493 60.7245 102.835 61.4492 103.519 62.0508C104.203 62.6525 105.023 62.9533 105.98 62.9533C107.648 62.9533 109.221 62.3653 110.698 61.1894C110.287 60.451 110.082 59.6716 110.082 58.8512C110.082 58.3043 110.26 57.8394 110.616 57.4565C110.971 57.0463 111.395 56.8412 111.887 56.8412C112.489 56.8412 113.118 57.019 113.774 57.3745C114.431 57.73 114.977 58.1675 115.415 58.6871C115.853 59.2067 116.071 59.7127 116.071 60.2049C116.071 60.6972 115.825 61.2441 115.333 61.8457C114.841 62.4474 114.157 63.0353 113.282 63.6096C114.184 65.1684 115.114 66.3991 116.071 67.3015C117.029 68.1766 117.904 68.6142 118.697 68.6142C119.189 68.6142 119.722 68.2997 120.297 67.6707L123.086 69.8448C122.293 70.6105 121.472 70.9934 120.625 70.9934C119.23 70.9934 117.767 70.3781 116.235 69.1475C114.704 67.9442 113.309 66.276 112.051 64.1429C110.848 64.9086 109.508 65.2915 108.031 65.2915C106.773 65.2915 105.488 64.9223 104.175 64.1839C102.89 63.4182 101.823 62.4611 100.976 61.3125C100.155 60.1365 99.7451 58.9743 99.7451 57.8257C99.7451 56.6498 100.347 55.3918 101.55 54.0518C102.753 52.7118 104.394 51.4675 106.473 50.3189C104.75 49.7993 103.355 49.0199 102.288 47.9807C101.222 46.9415 100.689 45.875 100.689 44.7811C100.689 43.8513 100.935 42.9898 101.427 42.1968C101.947 41.4037 102.63 40.7747 103.478 40.3098C104.326 39.8175 105.256 39.5714 106.267 39.5714ZM129.854 43.3864H126.983L123.455 40.1047H129.854V43.3864ZM108.318 41.6635C107.607 41.6635 106.91 41.8686 106.226 42.2788C105.57 42.689 105.023 43.2359 104.586 43.9196C104.175 44.576 103.97 45.2596 103.97 45.9707C103.97 46.709 104.326 47.3927 105.037 48.0217C105.748 48.6507 106.664 49.0883 107.785 49.3344C108.906 48.7054 109.782 47.9397 110.411 47.0372C111.067 46.1348 111.395 45.2186 111.395 44.2888C111.395 43.6325 111.067 43.0308 110.411 42.4839C109.754 41.937 109.057 41.6635 108.318 41.6635Z" fill="#3E3E3E"/>
<path d="M139.548 43.3864C140.779 44.7811 141.695 46.1621 142.297 47.5295C142.926 48.8695 143.24 50.0728 143.24 51.1393C143.24 52.3699 142.844 53.4638 142.051 54.421C141.258 55.3508 140.259 56.0755 139.056 56.5951C137.88 57.0873 136.718 57.3334 135.569 57.3334C135.105 57.3334 134.667 57.2924 134.257 57.2104C137.074 60.8202 139.726 63.6643 142.215 65.7427C144.731 67.7938 148.342 70.0773 149.983 70.0773C150.502 70.0773 151.423 70.2514 152.119 70.0773C153.828 69.65 157.674 67.9408 159.383 66.2316L159.81 66.6589C158.101 68.3681 155.537 69.65 152.47 70.7062C152.237 70.7865 151.253 71.1165 150.542 71.1165C148.081 71.1165 144.922 69.4346 141.066 66.0709C139.535 64.7582 137.839 63.1447 135.98 61.2304C134.147 59.3161 132.561 57.4018 131.221 55.4875C129.909 53.5732 129.252 52.0144 129.252 50.8111C129.252 49.9634 129.635 49.225 130.401 48.596C131.167 47.967 132.083 47.6525 133.149 47.6525C134.216 47.6525 135.228 48.1311 136.185 49.0883C137.142 50.0181 137.921 51.235 138.523 52.7391C139.207 52.3836 139.754 51.905 140.164 51.3034C140.601 50.6744 140.82 50.0044 140.82 49.2934C140.82 48.3362 140.519 47.3244 139.918 46.2578C139.316 45.1639 138.523 44.2068 137.538 43.3864H127.078V40.1047H136.718L139.548 43.3864ZM145.784 43.3864H141.435L138.564 40.1047H145.784V43.3864ZM134.134 50.606C133.505 50.606 132.917 50.8111 132.37 51.2213C131.85 51.6042 131.59 52.0281 131.59 52.493C131.59 52.9579 131.741 53.3818 132.042 53.7646C132.37 54.1201 132.739 54.2979 133.149 54.2979C134.79 54.2979 136.212 53.9697 137.415 53.3134C137.142 52.5203 136.691 51.8777 136.062 51.3854C135.433 50.8658 134.79 50.606 134.134 50.606Z" fill="#3E3E3E"/>
<path d="M15.6828 43.7461C15.2288 44.6052 14.1067 45.5203 10.2609 45.0711C8.81731 44.9025 5.59638 43.1272 3.45987 44.4091C5.59638 40.9907 9.86938 37.5723 15.0133 39.5296C17.203 41.5659 15.5231 42.9051 15.6828 43.7461Z" fill="#AD6C09"/>
<path d="M41.2233 44.2343C41.638 43.0892 42.123 40.344 40.745 38.5246C60.4312 39.2388 98.8793 40.9499 95.1817 42.0804C91.484 43.2109 57.6687 43.9874 41.2233 44.2343Z" fill="#613914"/>
<path d="M41.2233 44.2343L15.6108 44.0266C15.7362 42.0434 15.4354 40.8431 15.0276 39.43C22.3691 39.0802 37.8941 38.4447 40.745 38.5246C42.123 40.344 41.638 43.0892 41.2233 44.2343Z" fill="#9D9D9D"/>
<g filter="url(#filter0_f_910_197)">
<path d="M16.6648 42.3028H41.4482" stroke="#ECE7E7"/>
</g>
<defs>
<filter id="filter0_f_910_197" x="15.6648" y="40.8028" width="26.7834" height="3" filterUnits="userSpaceOnUse" color-interpolation-filters="sRGB">
<feFlood flood-opacity="0" result="BackgroundImageFix"/>
<feBlend mode="normal" in="SourceGraphic" in2="BackgroundImageFix" result="shape"/>
<feGaussianBlur stdDeviation="0.5" result="effect1_foregroundBlur_910_197"/>
</filter>
</defs>
</svg>
