<svg width="195" height="209" viewBox="0 0 195 209" fill="none" xmlns="http://www.w3.org/2000/svg">
<rect width="195" height="209" rx="17" fill="#CFCBFF"/>
<path d="M44.96 106.14C44.04 106.14 43.2133 105.98 42.48 105.66C41.76 105.327 41.1933 104.873 40.78 104.3C40.3667 103.713 40.1533 103.04 40.14 102.28H42.08C42.1467 102.933 42.4133 103.487 42.88 103.94C43.36 104.38 44.0533 104.6 44.96 104.6C45.8267 104.6 46.5067 104.387 47 103.96C47.5067 103.52 47.76 102.96 47.76 102.28C47.76 101.747 47.6133 101.313 47.32 100.98C47.0267 100.647 46.66 100.393 46.22 100.22C45.78 100.047 45.1867 99.86 44.44 99.66C43.52 99.42 42.78 99.18 42.22 98.94C41.6733 98.7 41.2 98.3267 40.8 97.82C40.4133 97.3 40.22 96.6067 40.22 95.74C40.22 94.98 40.4133 94.3067 40.8 93.72C41.1867 93.1333 41.7267 92.68 42.42 92.36C43.1267 92.04 43.9333 91.88 44.84 91.88C46.1467 91.88 47.2133 92.2067 48.04 92.86C48.88 93.5133 49.3533 94.38 49.46 95.46H47.46C47.3933 94.9267 47.1133 94.46 46.62 94.06C46.1267 93.6467 45.4733 93.44 44.66 93.44C43.9 93.44 43.28 93.64 42.8 94.04C42.32 94.4267 42.08 94.9733 42.08 95.68C42.08 96.1867 42.22 96.6 42.5 96.92C42.7933 97.24 43.1467 97.4867 43.56 97.66C43.9867 97.82 44.58 98.0067 45.34 98.22C46.26 98.4733 47 98.7267 47.56 98.98C48.12 99.22 48.6 99.6 49 100.12C49.4 100.627 49.6 101.32 49.6 102.2C49.6 102.88 49.42 103.52 49.06 104.12C48.7 104.72 48.1667 105.207 47.46 105.58C46.7533 105.953 45.92 106.14 44.96 106.14ZM51.5983 100.48C51.5983 99.36 51.8249 98.38 52.2783 97.54C52.7316 96.6867 53.3516 96.0267 54.1383 95.56C54.9383 95.0933 55.8249 94.86 56.7983 94.86C57.7583 94.86 58.5916 95.0667 59.2983 95.48C60.0049 95.8933 60.5316 96.4133 60.8783 97.04V95.04H62.7183V106H60.8783V103.96C60.5183 104.6 59.9783 105.133 59.2583 105.56C58.5516 105.973 57.7249 106.18 56.7783 106.18C55.8049 106.18 54.9249 105.94 54.1383 105.46C53.3516 104.98 52.7316 104.307 52.2783 103.44C51.8249 102.573 51.5983 101.587 51.5983 100.48ZM60.8783 100.5C60.8783 99.6733 60.7116 98.9533 60.3783 98.34C60.0449 97.7267 59.5916 97.26 59.0183 96.94C58.4583 96.6067 57.8383 96.44 57.1583 96.44C56.4783 96.44 55.8583 96.6 55.2983 96.92C54.7383 97.24 54.2916 97.7067 53.9583 98.32C53.6249 98.9333 53.4583 99.6533 53.4583 100.48C53.4583 101.32 53.6249 102.053 53.9583 102.68C54.2916 103.293 54.7383 103.767 55.2983 104.1C55.8583 104.42 56.4783 104.58 57.1583 104.58C57.8383 104.58 58.4583 104.42 59.0183 104.1C59.5916 103.767 60.0449 103.293 60.3783 102.68C60.7116 102.053 60.8783 101.327 60.8783 100.5ZM67.6139 96.82C67.9339 96.1933 68.3872 95.7067 68.9739 95.36C69.5739 95.0133 70.3006 94.84 71.1539 94.84V96.72H70.6739C68.6339 96.72 67.6139 97.8267 67.6139 100.04V106H65.7939V95.04H67.6139V96.82ZM83.2548 100.1C83.2548 100.447 83.2348 100.813 83.1948 101.2H74.4348C74.5015 102.28 74.8682 103.127 75.5348 103.74C76.2148 104.34 77.0348 104.64 77.9948 104.64C78.7815 104.64 79.4348 104.46 79.9548 104.1C80.4882 103.727 80.8615 103.233 81.0748 102.62H83.0348C82.7415 103.673 82.1548 104.533 81.2748 105.2C80.3948 105.853 79.3015 106.18 77.9948 106.18C76.9548 106.18 76.0215 105.947 75.1948 105.48C74.3815 105.013 73.7415 104.353 73.2748 103.5C72.8082 102.633 72.5748 101.633 72.5748 100.5C72.5748 99.3667 72.8015 98.3733 73.2548 97.52C73.7082 96.6667 74.3415 96.0133 75.1548 95.56C75.9815 95.0933 76.9282 94.86 77.9948 94.86C79.0348 94.86 79.9548 95.0867 80.7548 95.54C81.5548 95.9933 82.1682 96.62 82.5948 97.42C83.0348 98.2067 83.2548 99.1 83.2548 100.1ZM81.3748 99.72C81.3748 99.0267 81.2215 98.4333 80.9148 97.94C80.6082 97.4333 80.1882 97.0533 79.6548 96.8C79.1348 96.5333 78.5548 96.4 77.9148 96.4C76.9948 96.4 76.2082 96.6933 75.5548 97.28C74.9148 97.8667 74.5482 98.68 74.4548 99.72H81.3748ZM95.6572 100.1C95.6572 100.447 95.6372 100.813 95.5972 101.2H86.8372C86.9039 102.28 87.2705 103.127 87.9372 103.74C88.6172 104.34 89.4372 104.64 90.3972 104.64C91.1839 104.64 91.8372 104.46 92.3572 104.1C92.8905 103.727 93.2639 103.233 93.4772 102.62H95.4372C95.1439 103.673 94.5572 104.533 93.6772 105.2C92.7972 105.853 91.7039 106.18 90.3972 106.18C89.3572 106.18 88.4239 105.947 87.5972 105.48C86.7839 105.013 86.1439 104.353 85.6772 103.5C85.2105 102.633 84.9772 101.633 84.9772 100.5C84.9772 99.3667 85.2039 98.3733 85.6572 97.52C86.1105 96.6667 86.7439 96.0133 87.5572 95.56C88.3839 95.0933 89.3305 94.86 90.3972 94.86C91.4372 94.86 92.3572 95.0867 93.1572 95.54C93.9572 95.9933 94.5705 96.62 94.9972 97.42C95.4372 98.2067 95.6572 99.1 95.6572 100.1ZM93.7772 99.72C93.7772 99.0267 93.6239 98.4333 93.3172 97.94C93.0105 97.4333 92.5905 97.0533 92.0572 96.8C91.5372 96.5333 90.9572 96.4 90.3172 96.4C89.3972 96.4 88.6105 96.6933 87.9572 97.28C87.3172 97.8667 86.9505 98.68 86.8572 99.72H93.7772ZM101.94 106.18C101.1 106.18 100.346 106.04 99.6795 105.76C99.0129 105.467 98.4862 105.067 98.0995 104.56C97.7129 104.04 97.4995 103.447 97.4595 102.78H99.3395C99.3929 103.327 99.6462 103.773 100.1 104.12C100.566 104.467 101.173 104.64 101.92 104.64C102.613 104.64 103.16 104.487 103.56 104.18C103.96 103.873 104.16 103.487 104.16 103.02C104.16 102.54 103.946 102.187 103.52 101.96C103.093 101.72 102.433 101.487 101.54 101.26C100.726 101.047 100.06 100.833 99.5395 100.62C99.0329 100.393 98.5929 100.067 98.2195 99.64C97.8595 99.2 97.6795 98.6267 97.6795 97.92C97.6795 97.36 97.8462 96.8467 98.1795 96.38C98.5129 95.9133 98.9862 95.5467 99.5995 95.28C100.213 95 100.913 94.86 101.7 94.86C102.913 94.86 103.893 95.1667 104.64 95.78C105.386 96.3933 105.786 97.2333 105.84 98.3H104.02C103.98 97.7267 103.746 97.2667 103.32 96.92C102.906 96.5733 102.346 96.4 101.64 96.4C100.986 96.4 100.466 96.54 100.08 96.82C99.6929 97.1 99.4995 97.4667 99.4995 97.92C99.4995 98.28 99.6129 98.58 99.8395 98.82C100.08 99.0467 100.373 99.2333 100.72 99.38C101.08 99.5133 101.573 99.6667 102.2 99.84C102.986 100.053 103.626 100.267 104.12 100.48C104.613 100.68 105.033 100.987 105.38 101.4C105.74 101.813 105.926 102.353 105.94 103.02C105.94 103.62 105.773 104.16 105.44 104.64C105.106 105.12 104.633 105.5 104.02 105.78C103.42 106.047 102.726 106.18 101.94 106.18Z" fill="black"/>
</svg>
