<svg width="18" height="18" viewBox="0 0 18 18" fill="none" xmlns="http://www.w3.org/2000/svg">
<path d="M5.67787 9.45472L5.67787 9.4548L5.63987 11.8328L5.63986 11.8338C5.63661 12.1228 5.8702 12.36 6.15984 12.36H6.16784V12.3601L6.17275 12.3599L8.53268 12.3019L8.53268 12.302L8.53775 12.3018C8.62113 12.2976 8.71 12.2646 8.77718 12.1974L17.0948 3.89757L17.0949 3.89742C17.235 3.75731 17.235 3.52869 17.0949 3.38858L17.0949 3.38852L14.609 0.90458C14.609 0.904561 14.609 0.904542 14.6089 0.904524C14.5352 0.830845 14.4423 0.8 14.3536 0.8C14.259 0.8 14.1706 0.836561 14.1028 0.900093L14.1027 0.900022L14.0983 0.904445L5.78256 9.20444L5.78252 9.20441L5.77929 9.20778C5.7156 9.27439 5.67939 9.36257 5.67787 9.45472ZM16.8395 8.8H15.7195C15.5211 8.8 15.3595 8.96155 15.3595 9.16V15.36H2.63995V2.64H8.83975C9.03821 2.64 9.19975 2.47845 9.19975 2.28V1.16C9.19975 0.961549 9.03821 0.8 8.83975 0.8H1.63998C1.17553 0.8 0.8 1.17555 0.8 1.64V16.36C0.8 16.8245 1.17553 17.2 1.63998 17.2H16.3595C16.824 17.2 17.1995 16.8245 17.1995 16.36V9.16C17.1995 8.96155 17.038 8.8 16.8395 8.8ZM7.34656 10.0142L14.3536 3.02253L14.9744 3.642L7.96308 10.638L7.33692 10.6531L7.34656 10.0142Z" fill="#B9B9B9" stroke="#B9B9B9" stroke-width="0.4"/>
</svg>
