<svg width="20" height="19" viewBox="0 0 20 19" fill="none" xmlns="http://www.w3.org/2000/svg">
<path d="M10.7127 0.278323C10.6197 0.190132 10.5092 0.120133 10.3874 0.0723635C10.2655 0.0245941 10.1349 0 10.0029 0C9.87092 0 9.74025 0.0245941 9.61842 0.0723635C9.4966 0.120133 9.38603 0.190132 9.2931 0.278323L0.295712 8.74663C0.202011 8.8341 0.127638 8.93817 0.0768846 9.05283C0.0261306 9.16749 0 9.29047 0 9.41469C0 9.5389 0.0261306 9.66188 0.0768846 9.77654C0.127638 9.8912 0.202011 9.99527 0.295712 10.0827C0.389125 10.1699 0.499909 10.2389 0.621711 10.2858C0.743513 10.3326 0.873938 10.3563 1.00551 10.3556H2.00522V16.9421C2.00522 17.4412 2.21587 17.9198 2.59083 18.2727C2.9658 18.6257 3.47435 18.8239 4.00463 18.8239H16.0011C16.5314 18.8239 17.04 18.6257 17.4149 18.2727C17.7899 17.9198 18.0006 17.4412 18.0006 16.9421V10.3556H19.0003C19.2654 10.3556 19.5197 10.2565 19.7072 10.08C19.8947 9.90356 20 9.66424 20 9.41469C20.0007 9.29086 19.9755 9.1681 19.9258 9.05346C19.876 8.93882 19.8027 8.83455 19.7101 8.74663L10.7127 0.278323ZM4.00463 16.9421V7.91862L10.0029 2.27308L16.0011 7.91862V16.9421H4.00463Z" fill="#B9B9B9"/>
</svg>
